<?xml version="1.0" encoding="UTF-8"?><svg id="Lager_2" xmlns="http://www.w3.org/2000/svg" viewBox="0 0 240 240"><defs><style>.cls-1{fill:#f47925;}.cls-1,.cls-2{fill-rule:evenodd;}.cls-2{fill:#ffbf31;}</style></defs><path class="cls-1" d="M86.19,98.18c-3.02-3.02-8.19-.88-8.19,3.39v24.41H37.2c-3.98,0-7.2,3.22-7.2,7.2v33.6c0,3.98,3.22,7.2,7.2,7.2h40.8v24.41c0,4.28,5.17,6.42,8.19,3.39l46.71-46.71c2.81-2.81,2.81-7.37,0-10.18l-46.71-46.72Z"/><path class="cls-2" d="M202.8,65.99h-40.8v-24.38c0-4.28-5.18-6.42-8.2-3.39l-46.72,46.87c-2.81,2.82-2.8,7.38,.02,10.18l46.71,46.56c3.03,3.02,8.19,.87,8.19-3.4v-24.44h40.8c3.98,0,7.2-3.22,7.2-7.2v-33.6c0-3.98-3.22-7.2-7.2-7.2Z"/></svg>