<?xml version="1.0" encoding="UTF-8"?><svg id="Lager_1" xmlns="http://www.w3.org/2000/svg" viewBox="0 0 240 240"><defs><style>.cls-1{fill:#9edbd1;}.cls-2{fill:#241d56;}.cls-3{fill:#4062cc;}</style></defs><path class="cls-2" d="M113.06,161.02l8.79,45.83c.66,3.45,5.2,4.32,7.09,1.35l23.19-36.52-39.06-10.66Z"/><path class="cls-1" d="M210.57,34.12L11.71,113.66c-2.25,.9-2.28,4.06-.06,5.02l64.7,27.73c2.7,1.16,5.83,.69,8.07-1.21L212.3,36.99c1.47-1.25,.06-3.59-1.73-2.88Z"/><path class="cls-3" d="M219.83,39.17l-10.04,150.54c-.12,1.77-1.88,2.96-3.57,2.39l-93.17-31.09L215.84,37.57c1.4-1.69,4.14-.59,4,1.6Z"/></svg>