<?xml version="1.0" encoding="UTF-8"?><svg id="Lager_1" xmlns="http://www.w3.org/2000/svg" viewBox="0 0 240 240"><defs><style>.cls-1{fill:#f47925;}.cls-2{fill:#ffbf31;}.cls-3{fill:#4f0942;}</style></defs><path class="cls-2" d="M35.37,103.96c-3.72-.15-6.52-3.46-6.06-7.16C34.59,54.17,71.81,22.04,115.48,23.85c43.68,1.81,78.1,36.92,79.84,79.84,.15,3.72-2.91,6.79-6.64,6.64l-153.32-6.37Z"/><path class="cls-1" d="M57.55,158.97H209.9c4.47,0,8.1,3.63,8.1,8.1h0c0,29.26-23.75,53.01-53.01,53.01h-62.55c-29.26,0-53.01-23.75-53.01-53.01h0c0-4.47,3.63-8.1,8.1-8.1Z" transform="translate(1.42 -1) rotate(.43)"/><rect class="cls-3" x="22.48" y="122.54" width="170.4" height="24.95" rx="12.47" ry="12.47" transform="translate(-6.97 5.86) rotate(-3.02)"/></svg>