<?xml version="1.0" encoding="UTF-8"?><svg id="Lager_1" xmlns="http://www.w3.org/2000/svg" viewBox="0 0 240 240"><defs><style>.cls-1{fill:#f47925;}.cls-2{fill:#ffbf31;}.cls-3{fill:#a01670;}</style></defs><rect class="cls-2" x="60" y="50" width="120" height="80" rx="7.75" ry="7.75"/><path class="cls-3" d="M52.81,180h24.38c1.55,0,2.81,1.26,2.81,2.81v2.19c0,8.28-6.72,15-15,15h0c-8.28,0-15-6.72-15-15v-2.19c0-1.55,1.26-2.81,2.81-2.81Z"/><path class="cls-3" d="M162.81,180h24.38c1.55,0,2.81,1.26,2.81,2.81v2.19c0,8.28-6.72,15-15,15h0c-8.28,0-15-6.72-15-15v-2.19c0-1.55,1.26-2.81,2.81-2.81Z"/><path class="cls-1" d="M190,95v45H50v-45c0-8.28-6.72-15-15-15h0c-8.28,0-15,6.72-15,15v59.98c0,8.3,6.73,15.02,15.02,15.02H204.98c8.3,0,15.02-6.73,15.02-15.02v-59.98c0-8.28-6.72-15-15-15h0c-8.28,0-15,6.72-15,15Z"/></svg>