<?xml version="1.0" encoding="UTF-8"?><svg id="Lager_1" xmlns="http://www.w3.org/2000/svg" viewBox="0 0 240 240"><defs><style>.cls-1{fill:#1a5450;}.cls-2{fill:#70c183;}</style></defs><path class="cls-2" d="M120.09,207.34l94.28-61.4c1.96-1.28,2.51-3.9,1.24-5.86l-7.89-12.12c-.88-1.35-2.37-2.12-3.92-2.12-.53,0-1.06,.09-1.58,.27-1.65,.58-3.36,.86-5.05,.86-4.97,0-9.83-2.44-12.74-6.91-4.04-6.21-2.97-14.28,2.17-19.24,1.22-1.18,1.48-3.02,.56-4.44l-8.42-12.94c-.81-1.24-2.16-1.92-3.55-1.92-.79,0-1.6,.22-2.31,.69l-94.28,61.4c-2.28,1.49-2.93,4.54-1.44,6.82l7.95,12.2c.7,1.07,1.87,1.65,3.09,1.65,.49,0,.99-.09,1.46-.28,1.8-.71,3.69-1.05,5.56-1.05,4.97,0,9.83,2.44,12.74,6.91,4.01,6.16,2.99,14.14-2.05,19.11-1.28,1.26-1.57,3.21-.59,4.71l7.95,12.2c.94,1.45,2.52,2.24,4.13,2.24,.92,0,1.86-.26,2.69-.8Z"/><path class="cls-1" d="M155.32,77.54l.03-12.77c0-2.49-2.01-4.51-4.49-4.51l-112.78-.24c-2.42,0-4.39,1.96-4.4,4.38l-.03,13.16c0,2.71,1.75,5.13,4.34,5.91,6.27,1.89,10.84,7.71,10.83,14.6-.01,6.89-4.61,12.7-10.89,14.55-2.6,.77-4.36,3.18-4.37,5.89l-.03,13.16c0,2.42,1.96,4.39,4.38,4.4l29.66,.06c1.46,0,2.89-.42,4.1-1.23l81.82-53.96c1.14-.75,1.83-2.02,1.83-3.39Z"/></svg>