<?xml version="1.0" encoding="UTF-8"?><svg id="Lager_2" xmlns="http://www.w3.org/2000/svg" viewBox="0 0 240 240"><defs><style>.cls-1{fill:#1a5450;}.cls-2{fill:#70c183;}</style></defs><path class="cls-2" d="M95.84,117.36l24.16,24.16,24.16-24.16,24.16-24.16c4.72-4.72,4.72-12.36,0-17.08-2.36-2.36-5.45-3.54-8.54-3.54s-6.18,1.18-8.54,3.54l-19.15,19.15V40.86c0-6.67-5.41-12.08-12.08-12.08s-12.08,5.41-12.08,12.08v54.41l-19.15-19.15c-2.36-2.36-5.45-3.54-8.54-3.54s-6.18,1.18-8.54,3.54c-4.72,4.72-4.72,12.36,0,17.08l24.16,24.16Z"/><path class="cls-1" d="M176.37,117.36h-15.13l-32.7,32.7-8.54,8.54-8.54-8.54-32.7-32.7h-15.13c-8.89,0-16.1,7.21-16.1,16.1v48.31c0,8.89,7.21,16.1,16.1,16.1h112.73c8.89,0,16.1-7.21,16.1-16.1v-48.31c0-8.89-7.21-16.1-16.1-16.1Z"/></svg>