<?xml version="1.0" encoding="UTF-8"?><svg id="Lager_2" xmlns="http://www.w3.org/2000/svg" viewBox="0 0 240 240"><defs><style>.cls-1{fill:#ff534a;}.cls-2{fill:#a01670;}.cls-3{fill:#4f0942;}</style></defs><path class="cls-3" d="M189.78,204.09c4.69-33.2-18.42-63.92-51.62-68.61-33.2-4.69-63.92,18.42-68.61,51.63l120.23,16.99Z"/><circle class="cls-2" cx="152.69" cy="87.85" r="43.37" transform="translate(-4.33 167.7) rotate(-56.87)"/><path class="cls-1" d="M87.07,70.85c-9.04-2.67-18.55,2.6-21.8,11.46l-2.84,7.74-7.74-2.84c-8.85-3.25-19.02,.59-22.83,9.22-4.18,9.45,.54,20.32,10.08,23.83l8.31,3.05,22.99,8.45c5.65,2.08,11.91-.82,13.99-6.48l5.39-14.7h0l6.09-16.63c3.5-9.55-1.73-20.18-11.64-23.11Z"/></svg>