<svg id="Lager_1" data-name="Lager 1" xmlns="http://www.w3.org/2000/svg" viewBox="0 0 710 220"><defs><style>.cls-1{fill:#4f0942;}.cls-2{fill:#ffbf31;}.cls-3{fill:#ff534a;}.cls-4{fill:#2a303d;}</style></defs><path class="cls-1" d="M81.56,7.52A8.82,8.82,0,0,0,70.66.28,94.85,94.85,0,0,0,99.05,186.74a8.82,8.82,0,0,0,8.26-10.15Z"/><circle class="cls-2" cx="136.79" cy="45.56" r="38.4"/><path class="cls-3" d="M188.4,109.17l-47.82-7.83a13.92,13.92,0,0,0-15.92,11.55L111.31,196a13.89,13.89,0,0,0,11.41,16l47.82,7.83a13.92,13.92,0,0,0,15.92-11.55l13.35-83.09A13.89,13.89,0,0,0,188.4,109.17Z"/><path class="cls-4" d="M307.49,91.86v17.76h34.24a27.75,27.75,0,0,1-10.35,16.25q-7.86,5.94-18.94,5.94a31.52,31.52,0,0,1-23-9.16,30.63,30.63,0,0,1-9.33-22.77,31,31,0,0,1,9-22.62,29.88,29.88,0,0,1,22.14-9.17q20.25,0,29.14,16.76l17.77-6.16a39.82,39.82,0,0,0-17.92-21.48,56.65,56.65,0,0,0-29-7.44q-21.55,0-36.42,14.53T260,99.88q0,21.2,15,35.65T311.86,150q21.57,0,35.55-14.18t14-35.65c0-2.2-.15-5-.44-8.31Z"/><rect class="cls-4" x="369.69" y="76.4" width="19.23" height="71.45"/><path class="cls-4" d="M379.31,43.75a11.22,11.22,0,0,0-8.3,3.37,10.85,10.85,0,0,0-3.35,7.94,10.45,10.45,0,0,0,3.28,7.88,11.57,11.57,0,0,0,8.37,3.15,11.69,11.69,0,0,0,8.31-3.15A10.37,10.37,0,0,0,391,55.06a10.89,10.89,0,0,0-3.35-7.94A11.24,11.24,0,0,0,379.31,43.75Z"/><path class="cls-4" d="M494.53,132.39q-10.63,0-10.63-12.32V91.86h23.74V76.4H483.9V54.78H464.67V76.4H429V70a9.74,9.74,0,0,1,3-7.59,11.09,11.09,0,0,1,7.79-2.72,23.85,23.85,0,0,1,7.29,1.28l4.36-15.32a30.94,30.94,0,0,0-13-2.72q-13,0-20.83,7.31T409.76,70V76.4H398.69V91.86h11.07v56H429v-56h35.68V121.5q0,14.33,7.58,21.41t21,7.09q8.88,0,18.94-5.3L506.62,129A26.35,26.35,0,0,1,494.53,132.39Z"/><path class="cls-4" d="M549.89,74.25q-15.89,0-26.73,10.67T512.3,112.2q0,16.61,10.78,27.2T549.59,150A40.34,40.34,0,0,0,571,144.41,34.53,34.53,0,0,0,584.85,128l-17.19-3.58q-5.68,9.45-18.07,9.45a17,17,0,0,1-11.72-4.51,21.1,21.1,0,0,1-6.49-12.1h55.36v-6.45q-.57-16-11.28-26.27A35.74,35.74,0,0,0,549.89,74.25ZM532,103.89a16,16,0,0,1,6.77-9.74,19.79,19.79,0,0,1,11.15-3.43A18.25,18.25,0,0,1,560.67,94a16.89,16.89,0,0,1,6.41,9.88Z"/><path class="cls-4" d="M652.3,82.13q-9.62-7.87-24-7.88t-25,10.81q-10.71,10.81-10.71,27.14t10.64,27.06q10.62,10.74,25,10.74,14.28,0,24-7.73v5.58h19.23V44.76H652.3ZM646,127.59a20.37,20.37,0,0,1-14.43,5.94,19.75,19.75,0,0,1-14.64-5.8q-5.75-5.79-5.75-15.53T617,96.59a19.66,19.66,0,0,1,14.65-5.87,20.21,20.21,0,0,1,14.42,6q6.26,6,6.26,15.47T646,127.59Z"/><polygon class="cls-4" points="705.81 134.16 702.14 141.79 698.51 134.16 694.27 134.16 694.27 147.81 697.9 147.81 697.9 140.84 701.01 147.76 703.26 147.76 706.38 140.84 706.38 147.81 710 147.81 710 134.16 705.81 134.16"/><polygon class="cls-4" points="680.02 137.37 684.32 137.37 684.31 147.81 688.19 147.81 688.2 137.37 692.59 137.37 692.59 134.16 680.03 134.16 680.02 137.37"/></svg>